<mxfile host="65bd71144e">
    <diagram id="So_7OUq3uzR74_TrwX4D" name="ページ1">
        <mxGraphModel dx="1642" dy="785" grid="1" gridSize="10" guides="1" tooltips="1" connect="1" arrows="1" fold="1" page="1" pageScale="1" pageWidth="1169" pageHeight="827" math="0" shadow="0">
            <root>
                <mxCell id="0"/>
                <mxCell id="1" parent="0"/>
                <mxCell id="9" style="edgeStyle=orthogonalEdgeStyle;html=1;entryX=0;entryY=0.5;entryDx=0;entryDy=0;fontFamily=Noto Sans JP;fontSource=https%3A%2F%2Ffonts.googleapis.com%2Fcss%3Ffamily%3DNoto%2BSans%2BJP;fontSize=18;endArrow=none;endFill=0;rounded=0;exitX=0.5;exitY=1;exitDx=0;exitDy=0;strokeColor=#FFFFFF;" parent="1" source="2" target="4" edge="1">
                    <mxGeometry relative="1" as="geometry"/>
                </mxCell>
                <mxCell id="2" value="" style="shape=image;imageAspect=0;aspect=fixed;verticalLabelPosition=bottom;verticalAlign=top;image=data:image/png,iVBORw0KGgoAAAANSUhEUgAAAX8AAAF/CAMAAACWmjlVAAAAM1BMVEXwUDPwUDPwUDPwUDPwUDPwUDPwUDPwUDPwUDPwUDPwUDPwUDPwUDPwUDPwUDPwUDPwUDPNJiJ+AAAAEHRSTlMA8DAQ0KDAQGCA4CCQUHCw+BUOAQAACLtJREFUeAHs0YNhRQEAwMBv4+0/bW0zxWWE3Oi3tl8vNsN548VuPx19Y1rOx8PdjntXvqvVZnikzcqZ72iyGJ5otnTny1sPz7Tz52ubHodnm009+sr9s+GFZluXkv1XjSc+BfsBBPsBBPsBZPsBpPsBpPsBpPsBpPsBpPsBpPsBpPsBpPsBpPsBpPsBtPt7APt7APt7APt7APt7APt7APt7APt7APt7APt7APt7APt7APt7APt7APt7APt7APt7APt7APt7APt7AP8BAAAgAAAEAIAABAEAIAAABACAAAD4N38BpPtncwBNV28BpPsBpPsBpPsBpPsBpPsBpPsBpPsBpPsBpPsBpPsBpPsBpPsBpPsBpPsBpPsBpPsBpPsBpPsBpPsB1PsB9PsB9PsB9PsB9Ps/DnDC3n0gWYoDURR9QgaE+7n/1c6Eb28yWnGJRG8FXed28W2J1s7ee21lBvDx+wOkun1ps96fGcDB7wjws+WtAAHC8fsDSGsLEIDn9wfQWgIE4Pn9AdRngC/4gQDLHiAAz29W5+HdJL8/gGqgAH7+GQDlRwMUOADPzwbIOxqA56cDLAYG4Pn5ADcZgOfnAxQwAM/PB1gNDMDz8wEaGIDn5wOsBgSIyG92ybMGBAjJn7I824wLwPPzDwDZgAAB+e2Sbx8gQEB+y9xrMD4Az1/k3GJAgHD8dso7AwKE47cu7woQIBy/rfKuGReA5+f9TwMCROO3Rd51AwJE4zdx/nwAnt8y588H4PltBf39AXh+3v9jQIBo/LZxzz/5ADy/dXmXDAgQjd8+cu4wAwJE47ck5y7jAvD8/AuwakCAePx2y7fduAA8P/8BQDIuAM/PX4AWIEBEfquaAUB+s2MGIPmtagYA+c2WGYDkt6YZAOQ3u2cAkt9smQFIfkt5BgD5zcoMwPDPADz/DMDzm+1LgAA0/3wayvP7144IAXh+/84cIADP71+qOUAAnt+/VXED+Pl5/yVAAD8/79+2AAH8/Ly/RQjg5+f9IwTw8/P+EQL4+Xn/CAH8/Lx/hAB+ft4/QgA/P+8fIYCfn/ePEMDPz/tHCODn5/0jBPDz8/4RAvj5ef8IAfz8vH+EAH5+3j9CAD8/7x8hgJ+f948QwM/P+wcIkIsF8H9iAIAf8H9wAIAf8H9wAIAf8PcFKLVv6/+7+tmAAAP4AX9ngHau+mrruQMBcrGI/rbJsaUOCQDwo/7+ADrOEQEAftbfH0BHGxAA4If9/QG0pQEBAH7Y3x9gKQMCAPywvz9AbgMCAPyAvyMAcDtbgB/wf1gAgB/w9wcY7JOOEef08v6jAqSRf8vcLYz/qADrwBN1FovjPyzAOe5Y5RbIf1iAvI86UWezQP7jAmyjrkB7JP+BAfYx91VcLZK/IwD8C1Df55/k2phHgPQ+//qUp0BVuux9/stTbueZpP4+/yQ95wLU3uf/eczbcHZrf5//LT3lJUCVvc9/1XPeBHqjf37O/ZzTG/31HH97of8u8n5607+F8/dv+ifjNv3LgKSBr//F/vGaTuM2n/+cuozbfP6/KRu3+fr3kD6v8+9y7h5xY8vLqM33P+9Xfv6eHnM78/zG75+YXXJtGXRXxTI//2UuP4fjYT2Cf8qP+A7u6fhgP4S/3U/49GvPjtfVMfx3ObaP+yFyeZe/df7J/+04giKMf8r01b9KQADa3/8a7DOAHwjA+vu/g3sN4AcD8P5pAW+cVCU2AO9vJWN//1gdkcP5W8kcPx+A97eSOX4+AO9vJXP8fADe39JKPPQCAWh//wvhbsP4+QC8v5VVv9haRvLzAXh/s/bTAsfHBvPzAXh/s7bpB7uaAfxAANzfLNXt0BfLV00G8AMBUP8vt7fe73W9e2+7mQH8QADAH1qVuADTv0pcgOlfJS7A9K8SF2D6V4kLMP2rxAWY/lXiAkz/KnEBpn+VuADTv0pcgOlfJS7A9K8SF2D6V4kLMP2rxAWY/lXiAkz/KnEBpn+VuADTv0pcgOlfJS7A9K8SF2D6V4kLMP2rxAWY/lUKHWDv2eEP8IcMkLrk+MImwB8ywCfrV1t3nj9wgHTpN8snzR84QDkcd0wG+IMGaNn7L+T5+QDxv79dpcABmuNfCPBHDVAydlInz88HSAt3Wg/Pzwe4gKPKaX4+gP+8niMB/GEDpEN/uw7whw3QkfPyeH4+gP/Azg3gDxrglGcJ4I8Z4JBnHeAPGaDItQPgDxnglm8F4I8Y4JBvJ8AfMMAu51aAP2CAj7wD+AMG6PJuB/jjBbjkXQP44wVY5d0J8vMBeP8O8McLIMSf5+cD8P48Px9gAf15fj7A6vcH+fkAvH8D+OMF6PKugPx8AP7njcDPByhybgH4IwbI8u0G+CMG2OTbh+PnA/A/dA7CzwfI8mwD+fkA/AWoAPwxA+xybAX5+QD8L0AD+KMG2DP435/n5wN08rNfnp8PsIBvffL8fICSwasPz88HqOBfv1RpBujs/XpngO3p/DPA5OcfAw6AP1wA/wkcVxrHPwOky3H8D8AfNoC1Qz/fto/mnwGsHg59gD9sAGtb1rc7+m6T3xHAt09fv7C/zmI2+V0B/Ev/tUcXBw5AARBCiUzc+q927bTufyJQAm/x1OlfCgjQKyCA+8cDuF+AgADuHw/gfgECArh/PID7BQgI4P7xAO4XICCA+8cDuF+AgADuHw/gfgECArh/PID7BQjcKID7BQgIcKP7BQgIcKP7BQgIcKP7BQjFBAjFBAjFBAjFBAjFBAjFBAjFBAjFBAjFBAjFBAjFBAjFBAjFBAjFBAjFBAjFBAjFBAjFBAjFBAjFBAjFBAjFBAjfzLZz91ebza9ivwChmAChmAChmAChmAChmAChmAChmAChmAChmAChmAChmAChmAChmAChmAChmAChmAChmAChmAChmADhPxNgcfqwA/+brU/vt1ny39l0cXqn3YwB2fJNgWwZlE0zOT1rfpgxNAkOWTwizBe71ZYL7Q7H02m600+YOAAAAABJRU5ErkJggg==;" parent="1" vertex="1">
                    <mxGeometry x="80" y="40" width="40" height="40" as="geometry"/>
                </mxCell>
                <mxCell id="3" value="XxxSystemRepository" style="text;html=1;strokeColor=none;fillColor=none;align=left;verticalAlign=middle;whiteSpace=wrap;rounded=0;fontFamily=Noto Sans JP;fontSource=https%3A%2F%2Ffonts.googleapis.com%2Fcss%3Ffamily%3DNoto%2BSans%2BJP;fontSize=18;fontColor=#FFFFFF;" parent="1" vertex="1">
                    <mxGeometry x="130" y="40" width="190" height="40" as="geometry"/>
                </mxCell>
                <mxCell id="4" value="" style="shape=image;verticalLabelPosition=bottom;labelBackgroundColor=#ffffff;verticalAlign=top;aspect=fixed;imageAspect=0;image=data:image/png,iVBORw0KGgoAAAANSUhEUgAAANsAAADaCAYAAAAv3zflAAAAAXNSR0IArs4c6QAAAARnQU1BAACxjwv8YQUAAAAJcEhZcwAAFxEAABcRAcom8z8AAA/jSURBVHhe7dwLdJTlncdxurrHWCRA7vfL5EYmySQhkdwIIYRLCKBcohIkUgKEawCh4C04NiLQQjmibVWUWkCghdrqaQGFuhakQtFV1uNW12N32x4XLYUCsQoGyLPP/5137JAlFUN4monfzzn/M4nGc+Z9/f3e533fufQAAAAAAAAAAAAAAAAAAAAAAAAAAAAAAAAAAAAAAAAAAAAAAAAAAAAAAAAAgEtTSt2wZ8+eqKi+AbFRAQGxydFBMV1tonv0iIm+/vqYl3fvTtDPN8J+6kDXt2/fvtiGWdMLq0dVjps6aeL8iqKCRkdYkDshJMjtiAi5v6tNQkgfPUH3Vw4a2LRwVv29k6vH3T6irGTwqLKizCfWrAmxNwvoOrZv337Nxo1Ppjc13rO4ZuyY5wtcznec8THHkiPDjjvCQ07IJHXB8T63lMjwv2Y54o8XZmf+cVB+7oHSXNf3J44dM+W7K1dmrd60qade9b5mbyrwz6ODGDCvvm7s+KqRGypKCt4qyHJ+qoOrkiNClCM8WKVEhXkmsgtOVLj13BxhwUqXT7mS4lV2ikNlJsYezUl1HCzOdW2pKi/7pvveewv1dv6rvcmAeW63O/DuRfNHT6gavrPIldEi4U0I6WsFNyki1O9Gr3Ke565HCtgvNkoVZWf+fvzI4Y8vmF0//kePPRbNKod/ium1NSPGV43YVZjl/CQtOsIKaKIeK7RtQtxV51LP01u45MhQq3A5KY4TZQPyD82bNvXOI4cOJdqbD1x9u9atu65h5kxnVXnpwwMynWfS46KtFe1S4U0IDVLxwX1UXBcceV7y/No+b9/nLweQVL1iZycnqtK83DeHFA5YGt77OgoHM+bW1gZXj6pcqK/PjiTra59LlSxel08CLWGWv0nRK5/nGqmLjH4+8rwSw4JUTN9eKqr3DSo2KNBamX23xTvyt7LSJUeGv+mMj1k8ZlhpIqeUuOoKc3OTi7NdO7KTEs9KsdoGVAomK52cgulCqmEDi1VVeZmqLCvtMiPPZ3hpiVyTqX4xkbpovVVs38B2VzrP6XGwSouObMnrl3rk1tFVc5577rkoe5cAnU8fza8dVlo6JDMx4Q1nbLR1xPeGUx4TQj03SIpzstSCWfXq8UcfUZuf/qHatnmT2rppY5cZeT7P/Ohptf77j6rVyx9Ui+bMVjcPq1DOhFgV3jNAhd9w/UUHEc82hljFzEl2qLIb835TM+6miXp//Iu9a4DOdfTo0dA7am6bnZkY/751I8EOo4yEMy64typyZaj7vrlIvX74t+rcuXPq/HmZ811y5PmdPXNWvf/ee2qLLt+MOyZbBwrPKabnhs9F2xkeal3D6e1vLc3P3drU1JTx8svua+3dA3Se/fv3u+bW163NSU36yPemiGdVC9I/B6tpt9eowwcPqpaWz/SB33/85dgx9cbrr6mNT61XU267RWU64q3T4URru/6+wslIGQuzMv6nbvIkd9OSJSn27gE6z4s7d5YsnF2/Ic+Zety3bFI0WQXkrt3yZY3q4+ZmO8L+59Spk+qFX/5SzZ1Rp1xJCSo6sOfn2+ktnGyrKynx3JDCAW/eMWFsjf7PAuxdBHSOvbt3F+myre+fnvIX37LJ3Uf5uSg7S61Z8ZA6dfKkJ7l+quWzz9S+f3tJ1d4y3nq3iWyfZ+W2Tyf1JOvpFxf9SUVR4fpvL3fn6//sGns3AVduz65dhQtmzXiivbKV5OaotatWqhPHj3tS68eam09bN1PGVJRbLw1E65HTR2/ZpHzye1FO1h9vHTu6acuWLbx5GZ3ni8pWnOOyVrbuUDbxvx98oL7d9C2lr1H/30sDciopr9nl6n83uDD/NXlL1xOrVvW2dxVwZb5qZWttbbVOJ2dNneK5ftOrm3WH0l7dZOR0sn966unqUZXbG2bPKLd3FXBlvmplE389cULt2LZFjSwbqCJ6ff2iazfZZvldXsC/MaPfsZuGVTS++OyzYfbuAjruq1g28Yf//r361n13q3xnmoqTd5vo8RbOKp292pXkZr80f8aMiW+//fYN9i4DOuZyyyarQXciL34fPviqaqifbt0UiQz8+kVl874Wp8v4t6ohZT9tvOvObHuXAR1zOWWTu5HNfvw62z/y8x3bVVX5IJUU6bkb6d1+61GXUD44m+dM+1Nl2cCGvLw87k6i4y6nbKsfWq4++vBDdebMGXX69Cl1+pQeefTjaT59Wn38cbM6+JsDaumCefr6LF3F9L30pwRSoiP+lpee+kJVeVntKrc7bs2aB2PlkengrHLHPbxqVZx76dKYcePGhd05bVrQoV27AvWxr3u/Ta69snlvGsi7/O9ZvMi6g3dg36/Vz3b8RD37k23Woz+PrGjP/+yn6sfPbFbL7lqiBuX3t8rme7NExi5fqysp4bQu268XzJn5yNIFDWsXzp25junY3Dln1iOL58/53sxvTP7OyMGDFo+rGjHzgfvuvm3XrudyW1tbe9rR7H7aK5v3CC+nUWOGDrGubeZOr1M1425WE8eOsR79eSaN94y8Z7J69EiVl55mreZtVzbZH/JSgDM+RhW5Mlv0Keex0RXlH8oj07EZNaTs2Oihg48PLSn4QO/3/xiQ6Tw0bGDRnuGDip8aM3TwXdNqa6u2bt0abke0+2ivbL4jL/SmyodF7Q9odqfxbpv83Ha7fUcK5/1bpnNG9qf9/6FVzwVHROg5fbp+8qZhFb+aPmVy/eLFc+J1RLvPR56+qGzyu3zMJiqwpzUxfXp1q4nWI7f9L3Wt5juyH+RvZB8xnTPWHV+9X7371vulTLpwn5YX3PjWiLKS5VlpCWl2VP3f5axsDGNqvAXMSXGoQlfGH0rzsh+qvqnSacfVv32Zsn1+dNc7hGE6Y6wVzSdz8rP396ykBFWcm/XBzSOH3rtp0w/kXTz+/R0xX6Zs8u/ljp28n5BhOmOsO8A6V7458x7U5RP0ruREpU8p906puXVsXV1dLzu2/umLyiYXsPKtWnK9Jhe0+c5+qiTXpQb2z5a3MjFMh8aTH5eVJ8mV5Ety5nujSgonj/kZqR+OGFTyg5lTpiTYsfVPl3ODRL6PUe4eyUsASxY0qIfcy9TKpgfUigfuZ5gOjeRHciR5klxJviRnvvnz/uxKir9Q4Mp4ta6mpsiOrX/6R2WTc+pIfcTJT0+zvq3q5zt2WN/p8e7v/lP917vvqHff+R3DdGis/OgcSZ4kV5IvyZnkTXLnzaCsdPINaK6khPdvGz160oEDB/z3VLK9ssmjbLQs7bW3TFCvvvKKOn/hgucNhUAnklxJviRnni8CvvigLy8JZDni/3RHdXXjK3v3Ouzo+p/2yua9UyTvrHhwWaM69uc/27sG6HySL8mZ5M17x/vzg77OZW5a0rF50+q+t2fnznw7uv6nvbJ534hcmper1q3+jvXGXeBqkXxJziRvkjvJn2/Z5NvfFs6pf+qlF14otqPrf76obPKu/++uXNHtPs+GrkXyJTmTvF2qbJJPyank1Y6u/7mcsnXHT2qja5F8Sc4oG2XDVUbZKBsMoWyUDYZQNsoGQygbZYMhlI2ywRDKRtlgCGWjbDCEslE2GELZKBsMoWyUDYZQNsoGQygbZYMhlI2ywRDKRtlgCGWjbDCEslE2GELZKBsMoWyUDYZQNsoGQygbZYMhlI2ywRDKRtlgCGWjbDCEslE2GELZKBsMoWyUDYZQNsoGQygbZYMhlI2ywRDKRtlgCGWjbDCEslE2GELZKBsMoWyUDYZQNsoGQygbZYMhlI2ywRDKRtlgCGWjbDCEslE2GELZKBsMoWyUDYZQNsoGQygbZYMhlI2ywRDKRtlgCGWjbDCEslE2GELZKBsMoWyUDYZQNsoGQygbZYMhlI2ywRDKRtlgCGWjbDCEslE2GELZKBsMoWyUDYZQNsoGQygbZYMhlI2ywRDKRtlgCGWjbDCEslE2GELZKBsMoWyUDYZQNsoGQygbZYMhlI2ywRDKRtlgCGWjbDCEslE2GELZKBsMoWyUDYZQNsoGQygbZYMhlI2ywRDKRtlgCGWjbDCEslE2GELZKBsMoWyUDYZQNsoGQygbZYMhlI2ywRDKRtlgCGWjbDCEslE2GELZKBsMoWyUDYZQNsoGQygbZYMhlI2ywRDKRtlgCGWjbDCEslE2GELZKBsMoWz655LcHLV21UrKhqtK8iU5k7x127Lt3b27aOHs+vXtla0oO8s64pw6edLeLUDnk3xJziRv7ZVNcip5taPrf17cubNEb8SGPGfqcd+yJYQGqcSwYJWdnKiWL2tUHzc327sF6HySL8mZ5E1yJ/nzLZvkU3IqebWj63/279/vmltftzYnNekj37JZG2ltcLCadnuNOnzwoGppabF3DdB5Wlo+s/IlOZO8Se4uyqHOpeRTcip5taPrf5qPHg2trbl1TmZi/PtJ9gZ6R44wccG99dKeqRqXLFavHz6szp07p86fP68uXNCjH+Vnhvmy8/fsnFP//tphK1+SM8mb5M43h5JLyafkVPJqR9f/6APLtcNKS4dkJia84YyNVsmRYW1WN8+5c3FOlppd9w21bs1qtXHDk+rHz2xW2zZtVFsZpgOzbfMmtfnpH6rHH31ELZhVb+VLSiV58+ZPRvKYHhOlMhLi3pCcSl7t6Pqnwtzc5OJs147spMSzsqFtjyzWObReyhNCg5VLn1NXFA1Qo4YMViMHD1KVZaUM86WnqrxMDRtYrAqynKpfbJSdL891mm/uHBEhqn9aytlB+f13lBUWJtuR9V9za2uDq0dVLtQbfsR3ZfOO/C53h2L6Bqq4oD7WP0uNjlApUeEM07HR+ZGsScHigvt8fvfbN3dStmT9t4ML8o/Mmjpl4YoVK4LtyPqvXevWXdcwc6azqrz04QGZzjPpcdHWkabtxnt3gOwY2UEMcyUTr8f3Zoh35HfJX7pe8QZkOT+dUFX58GPr1jnfa229zo6s/6ufPLFy/MgRuwuznJ+k6SOPQxfLWsovsTMYpjOmba6svOmR/EkOJY+SSzui3Yfb7Q68e9H80ROqhu8scmW0yHIvR5i2dykZ5qqMzpnkTXIn+ZMcSh7dDQ2BdkS7F6VUwLz6urHjq0ZuqCgpeEtfx32a5YhXyfpC1REerHdEmGf0+TbDXNHYWZJcSb4kZ5I3yZ3kT3IoebSj2T1t3779mo0bn0xvarxncc3YMc8XuJzvOONjjukL2uN6qT8ho49CDHNF482S5EryJTmTvEnuJH+SQzuS3d++fftiG2ZNL6weVTlu6qSJ8yuKChodYUHuhJAgtyMi5H6GuZKxcqTzJLmSfEnOJG+SOzuCX02tra29fvWLX0RH9g2IiwwIiEuK6hvLMFcykiPJk+RK8mVHDQAAAAAAAAAAAAAAAAAAAAAAAAAAAAAAAAAAAAAAAAAAAAAAAAAAAAAAAAAu0qPH/wHuZytPzU9dPAAAAABJRU5ErkJggg==;" parent="1" vertex="1">
                    <mxGeometry x="120" y="80" width="40.18" height="40" as="geometry"/>
                </mxCell>
                <mxCell id="5" value="" style="shape=image;verticalLabelPosition=bottom;labelBackgroundColor=#ffffff;verticalAlign=top;aspect=fixed;imageAspect=0;image=data:image/png,iVBORw0KGgoAAAANSUhEUgAAANsAAADaCAYAAAAv3zflAAAAAXNSR0IArs4c6QAAAARnQU1BAACxjwv8YQUAAAAJcEhZcwAAFxEAABcRAcom8z8AAA/jSURBVHhe7dwLdJTlncdxurrHWCRA7vfL5EYmySQhkdwIIYRLCKBcohIkUgKEawCh4C04NiLQQjmibVWUWkCghdrqaQGFuhakQtFV1uNW12N32x4XLYUCsQoGyLPP/5137JAlFUN4monfzzn/M4nGc+Z9/f3e533fufQAAAAAAAAAAAAAAAAAAAAAAAAAAAAAAAAAAAAAAAAAAAAAAAAAAAAAAAAAgEtTSt2wZ8+eqKi+AbFRAQGxydFBMV1tonv0iIm+/vqYl3fvTtDPN8J+6kDXt2/fvtiGWdMLq0dVjps6aeL8iqKCRkdYkDshJMjtiAi5v6tNQkgfPUH3Vw4a2LRwVv29k6vH3T6irGTwqLKizCfWrAmxNwvoOrZv337Nxo1Ppjc13rO4ZuyY5wtcznec8THHkiPDjjvCQ07IJHXB8T63lMjwv2Y54o8XZmf+cVB+7oHSXNf3J44dM+W7K1dmrd60qade9b5mbyrwz6ODGDCvvm7s+KqRGypKCt4qyHJ+qoOrkiNClCM8WKVEhXkmsgtOVLj13BxhwUqXT7mS4lV2ikNlJsYezUl1HCzOdW2pKi/7pvveewv1dv6rvcmAeW63O/DuRfNHT6gavrPIldEi4U0I6WsFNyki1O9Gr3Ke565HCtgvNkoVZWf+fvzI4Y8vmF0//kePPRbNKod/ium1NSPGV43YVZjl/CQtOsIKaKIeK7RtQtxV51LP01u45MhQq3A5KY4TZQPyD82bNvXOI4cOJdqbD1x9u9atu65h5kxnVXnpwwMynWfS46KtFe1S4U0IDVLxwX1UXBcceV7y/No+b9/nLweQVL1iZycnqtK83DeHFA5YGt77OgoHM+bW1gZXj6pcqK/PjiTra59LlSxel08CLWGWv0nRK5/nGqmLjH4+8rwSw4JUTN9eKqr3DSo2KNBamX23xTvyt7LSJUeGv+mMj1k8ZlhpIqeUuOoKc3OTi7NdO7KTEs9KsdoGVAomK52cgulCqmEDi1VVeZmqLCvtMiPPZ3hpiVyTqX4xkbpovVVs38B2VzrP6XGwSouObMnrl3rk1tFVc5577rkoe5cAnU8fza8dVlo6JDMx4Q1nbLR1xPeGUx4TQj03SIpzstSCWfXq8UcfUZuf/qHatnmT2rppY5cZeT7P/Ohptf77j6rVyx9Ui+bMVjcPq1DOhFgV3jNAhd9w/UUHEc82hljFzEl2qLIb835TM+6miXp//Iu9a4DOdfTo0dA7am6bnZkY/751I8EOo4yEMy64typyZaj7vrlIvX74t+rcuXPq/HmZ811y5PmdPXNWvf/ee2qLLt+MOyZbBwrPKabnhs9F2xkeal3D6e1vLc3P3drU1JTx8svua+3dA3Se/fv3u+bW163NSU36yPemiGdVC9I/B6tpt9eowwcPqpaWz/SB33/85dgx9cbrr6mNT61XU267RWU64q3T4URru/6+wslIGQuzMv6nbvIkd9OSJSn27gE6z4s7d5YsnF2/Ic+Zety3bFI0WQXkrt3yZY3q4+ZmO8L+59Spk+qFX/5SzZ1Rp1xJCSo6sOfn2+ktnGyrKynx3JDCAW/eMWFsjf7PAuxdBHSOvbt3F+myre+fnvIX37LJ3Uf5uSg7S61Z8ZA6dfKkJ7l+quWzz9S+f3tJ1d4y3nq3iWyfZ+W2Tyf1JOvpFxf9SUVR4fpvL3fn6//sGns3AVduz65dhQtmzXiivbKV5OaotatWqhPHj3tS68eam09bN1PGVJRbLw1E65HTR2/ZpHzye1FO1h9vHTu6acuWLbx5GZ3ni8pWnOOyVrbuUDbxvx98oL7d9C2lr1H/30sDciopr9nl6n83uDD/NXlL1xOrVvW2dxVwZb5qZWttbbVOJ2dNneK5ftOrm3WH0l7dZOR0sn966unqUZXbG2bPKLd3FXBlvmplE389cULt2LZFjSwbqCJ6ff2iazfZZvldXsC/MaPfsZuGVTS++OyzYfbuAjruq1g28Yf//r361n13q3xnmoqTd5vo8RbOKp292pXkZr80f8aMiW+//fYN9i4DOuZyyyarQXciL34fPviqaqifbt0UiQz8+kVl874Wp8v4t6ohZT9tvOvObHuXAR1zOWWTu5HNfvw62z/y8x3bVVX5IJUU6bkb6d1+61GXUD44m+dM+1Nl2cCGvLw87k6i4y6nbKsfWq4++vBDdebMGXX69Cl1+pQeefTjaT59Wn38cbM6+JsDaumCefr6LF3F9L30pwRSoiP+lpee+kJVeVntKrc7bs2aB2PlkengrHLHPbxqVZx76dKYcePGhd05bVrQoV27AvWxr3u/Ta69snlvGsi7/O9ZvMi6g3dg36/Vz3b8RD37k23Woz+PrGjP/+yn6sfPbFbL7lqiBuX3t8rme7NExi5fqysp4bQu268XzJn5yNIFDWsXzp25junY3Dln1iOL58/53sxvTP7OyMGDFo+rGjHzgfvuvm3XrudyW1tbe9rR7H7aK5v3CC+nUWOGDrGubeZOr1M1425WE8eOsR79eSaN94y8Z7J69EiVl55mreZtVzbZH/JSgDM+RhW5Mlv0Keex0RXlH8oj07EZNaTs2Oihg48PLSn4QO/3/xiQ6Tw0bGDRnuGDip8aM3TwXdNqa6u2bt0abke0+2ivbL4jL/SmyodF7Q9odqfxbpv83Ha7fUcK5/1bpnNG9qf9/6FVzwVHROg5fbp+8qZhFb+aPmVy/eLFc+J1RLvPR56+qGzyu3zMJiqwpzUxfXp1q4nWI7f9L3Wt5juyH+RvZB8xnTPWHV+9X7371vulTLpwn5YX3PjWiLKS5VlpCWl2VP3f5axsDGNqvAXMSXGoQlfGH0rzsh+qvqnSacfVv32Zsn1+dNc7hGE6Y6wVzSdz8rP396ykBFWcm/XBzSOH3rtp0w/kXTz+/R0xX6Zs8u/ljp28n5BhOmOsO8A6V7458x7U5RP0ruREpU8p906puXVsXV1dLzu2/umLyiYXsPKtWnK9Jhe0+c5+qiTXpQb2z5a3MjFMh8aTH5eVJ8mV5Ety5nujSgonj/kZqR+OGFTyg5lTpiTYsfVPl3ODRL6PUe4eyUsASxY0qIfcy9TKpgfUigfuZ5gOjeRHciR5klxJviRnvvnz/uxKir9Q4Mp4ta6mpsiOrX/6R2WTc+pIfcTJT0+zvq3q5zt2WN/p8e7v/lP917vvqHff+R3DdGis/OgcSZ4kV5IvyZnkTXLnzaCsdPINaK6khPdvGz160oEDB/z3VLK9ssmjbLQs7bW3TFCvvvKKOn/hgucNhUAnklxJviRnni8CvvigLy8JZDni/3RHdXXjK3v3Ouzo+p/2yua9UyTvrHhwWaM69uc/27sG6HySL8mZ5M17x/vzg77OZW5a0rF50+q+t2fnznw7uv6nvbJ534hcmper1q3+jvXGXeBqkXxJziRvkjvJn2/Z5NvfFs6pf+qlF14otqPrf76obPKu/++uXNHtPs+GrkXyJTmTvF2qbJJPyank1Y6u/7mcsnXHT2qja5F8Sc4oG2XDVUbZKBsMoWyUDYZQNsoGQygbZYMhlI2ywRDKRtlgCGWjbDCEslE2GELZKBsMoWyUDYZQNsoGQygbZYMhlI2ywRDKRtlgCGWjbDCEslE2GELZKBsMoWyUDYZQNsoGQygbZYMhlI2ywRDKRtlgCGWjbDCEslE2GELZKBsMoWyUDYZQNsoGQygbZYMhlI2ywRDKRtlgCGWjbDCEslE2GELZKBsMoWyUDYZQNsoGQygbZYMhlI2ywRDKRtlgCGWjbDCEslE2GELZKBsMoWyUDYZQNsoGQygbZYMhlI2ywRDKRtlgCGWjbDCEslE2GELZKBsMoWyUDYZQNsoGQygbZYMhlI2ywRDKRtlgCGWjbDCEslE2GELZKBsMoWyUDYZQNsoGQygbZYMhlI2ywRDKRtlgCGWjbDCEslE2GELZKBsMoWyUDYZQNsoGQygbZYMhlI2ywRDKRtlgCGWjbDCEslE2GELZKBsMoWyUDYZQNsoGQygbZYMhlI2ywRDKRtlgCGWjbDCEslE2GELZKBsMoWyUDYZQNsoGQygbZYMhlI2ywRDKRtlgCGWjbDCEslE2GELZKBsMoWyUDYZQNsoGQygbZYMhlI2ywRDKRtlgCGWjbDCEslE2GELZKBsMoWz655LcHLV21UrKhqtK8iU5k7x127Lt3b27aOHs+vXtla0oO8s64pw6edLeLUDnk3xJziRv7ZVNcip5taPrf17cubNEb8SGPGfqcd+yJYQGqcSwYJWdnKiWL2tUHzc327sF6HySL8mZ5E1yJ/nzLZvkU3IqebWj63/279/vmltftzYnNekj37JZG2ltcLCadnuNOnzwoGppabF3DdB5Wlo+s/IlOZO8Se4uyqHOpeRTcip5taPrf5qPHg2trbl1TmZi/PtJ9gZ6R44wccG99dKeqRqXLFavHz6szp07p86fP68uXNCjH+Vnhvmy8/fsnFP//tphK1+SM8mb5M43h5JLyafkVPJqR9f/6APLtcNKS4dkJia84YyNVsmRYW1WN8+5c3FOlppd9w21bs1qtXHDk+rHz2xW2zZtVFsZpgOzbfMmtfnpH6rHH31ELZhVb+VLSiV58+ZPRvKYHhOlMhLi3pCcSl7t6Pqnwtzc5OJs147spMSzsqFtjyzWObReyhNCg5VLn1NXFA1Qo4YMViMHD1KVZaUM86WnqrxMDRtYrAqynKpfbJSdL891mm/uHBEhqn9aytlB+f13lBUWJtuR9V9za2uDq0dVLtQbfsR3ZfOO/C53h2L6Bqq4oD7WP0uNjlApUeEM07HR+ZGsScHigvt8fvfbN3dStmT9t4ML8o/Mmjpl4YoVK4LtyPqvXevWXdcwc6azqrz04QGZzjPpcdHWkabtxnt3gOwY2UEMcyUTr8f3Zoh35HfJX7pe8QZkOT+dUFX58GPr1jnfa229zo6s/6ufPLFy/MgRuwuznJ+k6SOPQxfLWsovsTMYpjOmba6svOmR/EkOJY+SSzui3Yfb7Q68e9H80ROqhu8scmW0yHIvR5i2dykZ5qqMzpnkTXIn+ZMcSh7dDQ2BdkS7F6VUwLz6urHjq0ZuqCgpeEtfx32a5YhXyfpC1REerHdEmGf0+TbDXNHYWZJcSb4kZ5I3yZ3kT3IoebSj2T1t3779mo0bn0xvarxncc3YMc8XuJzvOONjjukL2uN6qT8ho49CDHNF482S5EryJTmTvEnuJH+SQzuS3d++fftiG2ZNL6weVTlu6qSJ8yuKChodYUHuhJAgtyMi5H6GuZKxcqTzJLmSfEnOJG+SOzuCX02tra29fvWLX0RH9g2IiwwIiEuK6hvLMFcykiPJk+RK8mVHDQAAAAAAAAAAAAAAAAAAAAAAAAAAAAAAAAAAAAAAAAAAAAAAAAAAAAAAAAAu0qPH/wHuZytPzU9dPAAAAABJRU5ErkJggg==;" parent="1" vertex="1">
                    <mxGeometry x="120" y="120" width="40.18" height="40" as="geometry"/>
                </mxCell>
                <mxCell id="6" value="AaaSubSystem" style="text;html=1;strokeColor=none;fillColor=none;align=left;verticalAlign=middle;whiteSpace=wrap;rounded=0;fontFamily=Noto Sans JP;fontSource=https%3A%2F%2Ffonts.googleapis.com%2Fcss%3Ffamily%3DNoto%2BSans%2BJP;fontSize=18;fontColor=#FFFFFF;" parent="1" vertex="1">
                    <mxGeometry x="170" y="80" width="150" height="40" as="geometry"/>
                </mxCell>
                <mxCell id="7" value="BbbSubSystem" style="text;html=1;strokeColor=none;fillColor=none;align=left;verticalAlign=middle;whiteSpace=wrap;rounded=0;fontFamily=Noto Sans JP;fontSource=https%3A%2F%2Ffonts.googleapis.com%2Fcss%3Ffamily%3DNoto%2BSans%2BJP;fontSize=18;fontColor=#FFFFFF;" parent="1" vertex="1">
                    <mxGeometry x="170" y="120" width="150" height="40" as="geometry"/>
                </mxCell>
                <mxCell id="10" style="edgeStyle=orthogonalEdgeStyle;html=1;entryX=0;entryY=0.5;entryDx=0;entryDy=0;fontFamily=Noto Sans JP;fontSource=https%3A%2F%2Ffonts.googleapis.com%2Fcss%3Ffamily%3DNoto%2BSans%2BJP;fontSize=18;endArrow=none;endFill=0;rounded=0;exitX=0.5;exitY=1;exitDx=0;exitDy=0;strokeColor=#FFFFFF;" parent="1" source="2" target="5" edge="1">
                    <mxGeometry relative="1" as="geometry">
                        <mxPoint x="110" y="90" as="sourcePoint"/>
                        <mxPoint x="130" y="110" as="targetPoint"/>
                    </mxGeometry>
                </mxCell>
                <mxCell id="11" value="SystemCommon" style="text;html=1;strokeColor=none;fillColor=none;align=left;verticalAlign=middle;whiteSpace=wrap;rounded=0;fontFamily=Noto Sans JP;fontSource=https%3A%2F%2Ffonts.googleapis.com%2Fcss%3Ffamily%3DNoto%2BSans%2BJP;fontSize=18;fontColor=#FFFFFF;" parent="1" vertex="1">
                    <mxGeometry x="170" y="160" width="150" height="40" as="geometry"/>
                </mxCell>
                <mxCell id="12" value="" style="shape=image;verticalLabelPosition=bottom;labelBackgroundColor=#ffffff;verticalAlign=top;aspect=fixed;imageAspect=0;image=data:image/png,iVBORw0KGgoAAAANSUhEUgAAANsAAADaCAYAAAAv3zflAAAAAXNSR0IArs4c6QAAAARnQU1BAACxjwv8YQUAAAAJcEhZcwAAFxEAABcRAcom8z8AAA/jSURBVHhe7dwLdJTlncdxurrHWCRA7vfL5EYmySQhkdwIIYRLCKBcohIkUgKEawCh4C04NiLQQjmibVWUWkCghdrqaQGFuhakQtFV1uNW12N32x4XLYUCsQoGyLPP/5137JAlFUN4monfzzn/M4nGc+Z9/f3e533fufQAAAAAAAAAAAAAAAAAAAAAAAAAAAAAAAAAAAAAAAAAAAAAAAAAAAAAAAAAgEtTSt2wZ8+eqKi+AbFRAQGxydFBMV1tonv0iIm+/vqYl3fvTtDPN8J+6kDXt2/fvtiGWdMLq0dVjps6aeL8iqKCRkdYkDshJMjtiAi5v6tNQkgfPUH3Vw4a2LRwVv29k6vH3T6irGTwqLKizCfWrAmxNwvoOrZv337Nxo1Ppjc13rO4ZuyY5wtcznec8THHkiPDjjvCQ07IJHXB8T63lMjwv2Y54o8XZmf+cVB+7oHSXNf3J44dM+W7K1dmrd60qade9b5mbyrwz6ODGDCvvm7s+KqRGypKCt4qyHJ+qoOrkiNClCM8WKVEhXkmsgtOVLj13BxhwUqXT7mS4lV2ikNlJsYezUl1HCzOdW2pKi/7pvveewv1dv6rvcmAeW63O/DuRfNHT6gavrPIldEi4U0I6WsFNyki1O9Gr3Ke565HCtgvNkoVZWf+fvzI4Y8vmF0//kePPRbNKod/ium1NSPGV43YVZjl/CQtOsIKaKIeK7RtQtxV51LP01u45MhQq3A5KY4TZQPyD82bNvXOI4cOJdqbD1x9u9atu65h5kxnVXnpwwMynWfS46KtFe1S4U0IDVLxwX1UXBcceV7y/No+b9/nLweQVL1iZycnqtK83DeHFA5YGt77OgoHM+bW1gZXj6pcqK/PjiTra59LlSxel08CLWGWv0nRK5/nGqmLjH4+8rwSw4JUTN9eKqr3DSo2KNBamX23xTvyt7LSJUeGv+mMj1k8ZlhpIqeUuOoKc3OTi7NdO7KTEs9KsdoGVAomK52cgulCqmEDi1VVeZmqLCvtMiPPZ3hpiVyTqX4xkbpovVVs38B2VzrP6XGwSouObMnrl3rk1tFVc5577rkoe5cAnU8fza8dVlo6JDMx4Q1nbLR1xPeGUx4TQj03SIpzstSCWfXq8UcfUZuf/qHatnmT2rppY5cZeT7P/Ohptf77j6rVyx9Ui+bMVjcPq1DOhFgV3jNAhd9w/UUHEc82hljFzEl2qLIb835TM+6miXp//Iu9a4DOdfTo0dA7am6bnZkY/751I8EOo4yEMy64typyZaj7vrlIvX74t+rcuXPq/HmZ811y5PmdPXNWvf/ee2qLLt+MOyZbBwrPKabnhs9F2xkeal3D6e1vLc3P3drU1JTx8svua+3dA3Se/fv3u+bW163NSU36yPemiGdVC9I/B6tpt9eowwcPqpaWz/SB33/85dgx9cbrr6mNT61XU267RWU64q3T4URru/6+wslIGQuzMv6nbvIkd9OSJSn27gE6z4s7d5YsnF2/Ic+Zety3bFI0WQXkrt3yZY3q4+ZmO8L+59Spk+qFX/5SzZ1Rp1xJCSo6sOfn2+ktnGyrKynx3JDCAW/eMWFsjf7PAuxdBHSOvbt3F+myre+fnvIX37LJ3Uf5uSg7S61Z8ZA6dfKkJ7l+quWzz9S+f3tJ1d4y3nq3iWyfZ+W2Tyf1JOvpFxf9SUVR4fpvL3fn6//sGns3AVduz65dhQtmzXiivbKV5OaotatWqhPHj3tS68eam09bN1PGVJRbLw1E65HTR2/ZpHzye1FO1h9vHTu6acuWLbx5GZ3ni8pWnOOyVrbuUDbxvx98oL7d9C2lr1H/30sDciopr9nl6n83uDD/NXlL1xOrVvW2dxVwZb5qZWttbbVOJ2dNneK5ftOrm3WH0l7dZOR0sn966unqUZXbG2bPKLd3FXBlvmplE389cULt2LZFjSwbqCJ6ff2iazfZZvldXsC/MaPfsZuGVTS++OyzYfbuAjruq1g28Yf//r361n13q3xnmoqTd5vo8RbOKp292pXkZr80f8aMiW+//fYN9i4DOuZyyyarQXciL34fPviqaqifbt0UiQz8+kVl874Wp8v4t6ohZT9tvOvObHuXAR1zOWWTu5HNfvw62z/y8x3bVVX5IJUU6bkb6d1+61GXUD44m+dM+1Nl2cCGvLw87k6i4y6nbKsfWq4++vBDdebMGXX69Cl1+pQeefTjaT59Wn38cbM6+JsDaumCefr6LF3F9L30pwRSoiP+lpee+kJVeVntKrc7bs2aB2PlkengrHLHPbxqVZx76dKYcePGhd05bVrQoV27AvWxr3u/Ta69snlvGsi7/O9ZvMi6g3dg36/Vz3b8RD37k23Woz+PrGjP/+yn6sfPbFbL7lqiBuX3t8rme7NExi5fqysp4bQu268XzJn5yNIFDWsXzp25junY3Dln1iOL58/53sxvTP7OyMGDFo+rGjHzgfvuvm3XrudyW1tbe9rR7H7aK5v3CC+nUWOGDrGubeZOr1M1425WE8eOsR79eSaN94y8Z7J69EiVl55mreZtVzbZH/JSgDM+RhW5Mlv0Keex0RXlH8oj07EZNaTs2Oihg48PLSn4QO/3/xiQ6Tw0bGDRnuGDip8aM3TwXdNqa6u2bt0abke0+2ivbL4jL/SmyodF7Q9odqfxbpv83Ha7fUcK5/1bpnNG9qf9/6FVzwVHROg5fbp+8qZhFb+aPmVy/eLFc+J1RLvPR56+qGzyu3zMJiqwpzUxfXp1q4nWI7f9L3Wt5juyH+RvZB8xnTPWHV+9X7371vulTLpwn5YX3PjWiLKS5VlpCWl2VP3f5axsDGNqvAXMSXGoQlfGH0rzsh+qvqnSacfVv32Zsn1+dNc7hGE6Y6wVzSdz8rP396ykBFWcm/XBzSOH3rtp0w/kXTz+/R0xX6Zs8u/ljp28n5BhOmOsO8A6V7458x7U5RP0ruREpU8p906puXVsXV1dLzu2/umLyiYXsPKtWnK9Jhe0+c5+qiTXpQb2z5a3MjFMh8aTH5eVJ8mV5Ety5nujSgonj/kZqR+OGFTyg5lTpiTYsfVPl3ODRL6PUe4eyUsASxY0qIfcy9TKpgfUigfuZ5gOjeRHciR5klxJviRnvvnz/uxKir9Q4Mp4ta6mpsiOrX/6R2WTc+pIfcTJT0+zvq3q5zt2WN/p8e7v/lP917vvqHff+R3DdGis/OgcSZ4kV5IvyZnkTXLnzaCsdPINaK6khPdvGz160oEDB/z3VLK9ssmjbLQs7bW3TFCvvvKKOn/hgucNhUAnklxJviRnni8CvvigLy8JZDni/3RHdXXjK3v3Ouzo+p/2yua9UyTvrHhwWaM69uc/27sG6HySL8mZ5M17x/vzg77OZW5a0rF50+q+t2fnznw7uv6nvbJ534hcmper1q3+jvXGXeBqkXxJziRvkjvJn2/Z5NvfFs6pf+qlF14otqPrf76obPKu/++uXNHtPs+GrkXyJTmTvF2qbJJPyank1Y6u/7mcsnXHT2qja5F8Sc4oG2XDVUbZKBsMoWyUDYZQNsoGQygbZYMhlI2ywRDKRtlgCGWjbDCEslE2GELZKBsMoWyUDYZQNsoGQygbZYMhlI2ywRDKRtlgCGWjbDCEslE2GELZKBsMoWyUDYZQNsoGQygbZYMhlI2ywRDKRtlgCGWjbDCEslE2GELZKBsMoWyUDYZQNsoGQygbZYMhlI2ywRDKRtlgCGWjbDCEslE2GELZKBsMoWyUDYZQNsoGQygbZYMhlI2ywRDKRtlgCGWjbDCEslE2GELZKBsMoWyUDYZQNsoGQygbZYMhlI2ywRDKRtlgCGWjbDCEslE2GELZKBsMoWyUDYZQNsoGQygbZYMhlI2ywRDKRtlgCGWjbDCEslE2GELZKBsMoWyUDYZQNsoGQygbZYMhlI2ywRDKRtlgCGWjbDCEslE2GELZKBsMoWyUDYZQNsoGQygbZYMhlI2ywRDKRtlgCGWjbDCEslE2GELZKBsMoWyUDYZQNsoGQygbZYMhlI2ywRDKRtlgCGWjbDCEslE2GELZKBsMoWyUDYZQNsoGQygbZYMhlI2ywRDKRtlgCGWjbDCEslE2GELZKBsMoWyUDYZQNsoGQygbZYMhlI2ywRDKRtlgCGWjbDCEslE2GELZKBsMoWz655LcHLV21UrKhqtK8iU5k7x127Lt3b27aOHs+vXtla0oO8s64pw6edLeLUDnk3xJziRv7ZVNcip5taPrf17cubNEb8SGPGfqcd+yJYQGqcSwYJWdnKiWL2tUHzc327sF6HySL8mZ5E1yJ/nzLZvkU3IqebWj63/279/vmltftzYnNekj37JZG2ltcLCadnuNOnzwoGppabF3DdB5Wlo+s/IlOZO8Se4uyqHOpeRTcip5taPrf5qPHg2trbl1TmZi/PtJ9gZ6R44wccG99dKeqRqXLFavHz6szp07p86fP68uXNCjH+Vnhvmy8/fsnFP//tphK1+SM8mb5M43h5JLyafkVPJqR9f/6APLtcNKS4dkJia84YyNVsmRYW1WN8+5c3FOlppd9w21bs1qtXHDk+rHz2xW2zZtVFsZpgOzbfMmtfnpH6rHH31ELZhVb+VLSiV58+ZPRvKYHhOlMhLi3pCcSl7t6Pqnwtzc5OJs147spMSzsqFtjyzWObReyhNCg5VLn1NXFA1Qo4YMViMHD1KVZaUM86WnqrxMDRtYrAqynKpfbJSdL891mm/uHBEhqn9aytlB+f13lBUWJtuR9V9za2uDq0dVLtQbfsR3ZfOO/C53h2L6Bqq4oD7WP0uNjlApUeEM07HR+ZGsScHigvt8fvfbN3dStmT9t4ML8o/Mmjpl4YoVK4LtyPqvXevWXdcwc6azqrz04QGZzjPpcdHWkabtxnt3gOwY2UEMcyUTr8f3Zoh35HfJX7pe8QZkOT+dUFX58GPr1jnfa229zo6s/6ufPLFy/MgRuwuznJ+k6SOPQxfLWsovsTMYpjOmba6svOmR/EkOJY+SSzui3Yfb7Q68e9H80ROqhu8scmW0yHIvR5i2dykZ5qqMzpnkTXIn+ZMcSh7dDQ2BdkS7F6VUwLz6urHjq0ZuqCgpeEtfx32a5YhXyfpC1REerHdEmGf0+TbDXNHYWZJcSb4kZ5I3yZ3kT3IoebSj2T1t3779mo0bn0xvarxncc3YMc8XuJzvOONjjukL2uN6qT8ho49CDHNF482S5EryJTmTvEnuJH+SQzuS3d++fftiG2ZNL6weVTlu6qSJ8yuKChodYUHuhJAgtyMi5H6GuZKxcqTzJLmSfEnOJG+SOzuCX02tra29fvWLX0RH9g2IiwwIiEuK6hvLMFcykiPJk+RK8mVHDQAAAAAAAAAAAAAAAAAAAAAAAAAAAAAAAAAAAAAAAAAAAAAAAAAAAAAAAAAu0qPH/wHuZytPzU9dPAAAAABJRU5ErkJggg==;" parent="1" vertex="1">
                    <mxGeometry x="120" y="160" width="40.18" height="40" as="geometry"/>
                </mxCell>
                <mxCell id="13" style="edgeStyle=orthogonalEdgeStyle;html=1;entryX=0;entryY=0.5;entryDx=0;entryDy=0;fontFamily=Noto Sans JP;fontSource=https%3A%2F%2Ffonts.googleapis.com%2Fcss%3Ffamily%3DNoto%2BSans%2BJP;fontSize=18;endArrow=none;endFill=0;rounded=0;exitX=0.5;exitY=1;exitDx=0;exitDy=0;strokeColor=#FFFFFF;" parent="1" source="2" target="12" edge="1">
                    <mxGeometry relative="1" as="geometry">
                        <mxPoint x="110" y="90" as="sourcePoint"/>
                        <mxPoint x="130" y="150" as="targetPoint"/>
                    </mxGeometry>
                </mxCell>
            </root>
        </mxGraphModel>
    </diagram>
</mxfile>